<svg width="56" height="62" viewBox="0 0 56 62" fill="none" xmlns="http://www.w3.org/2000/svg">
<path d="M31.9637 18.0366C36.6472 17.308 34.8258 27.7071 37.4278 31.0462L43.2821 32.6074C48.3559 32.6074 40.6542 20.6905 38.9889 16.7356C36.9074 11.7919 34.9559 14.3938 26.1094 15.5647C17.2628 16.7356 21.2958 25.8424 26.1094 27.1433C30.9229 28.4443 31.9637 36.2501 30.6627 40.8035C29.3618 45.3569 20.3851 42.1044 17.3929 40.8035C14.4006 39.5025 26.4996 40.8035 24.9385 32.6074C23.3773 24.4113 12.189 34.4287 13.0997 40.8035C14.0104 47.1782 27.5606 49.0017 31.384 43.7957C36.2569 37.1608 34.3762 34.9491 34.3762 32.6074C34.3762 21.4919 28.5812 27.1433 27.6705 24.4113C26.7598 21.6793 26.1094 18.9472 31.9637 18.0366Z" fill="#EF2A2A"/>
<path d="M21.8304 14.0399C21.717 13.1321 20.109 9.8151 19.3516 9.4364" stroke="white" stroke-width="3" stroke-linecap="round"/>
<path d="M28.9128 11.5611C28.9128 9.83788 29.621 8.17823 29.621 6.42645C29.621 5.05445 30.0785 3.20981 30.6834 2" stroke="white" stroke-width="3" stroke-linecap="round"/>
<path d="M38.4739 9.4364C38.502 9.21174 41.3303 7.02627 41.7397 6.8789C42.8081 6.49427 44.1671 5.18701 45.2021 5.18701" stroke="white" stroke-width="3" stroke-linecap="round"/>
<path d="M44.4939 19.3517C44.4939 17.587 48.6118 16.7615 49.8056 16.1646" stroke="white" stroke-width="3" stroke-linecap="round"/>
<path d="M48.035 27.4963C49.973 27.4963 51.6489 26.7881 53.7009 26.7881" stroke="white" stroke-width="3" stroke-linecap="round"/>
<path d="M15.1023 28.9128C14.2169 28.9128 13.4196 28.1698 12.6234 27.7718C11.6297 27.2749 10.548 27.1422 9.4364 27.1422" stroke="white" stroke-width="3" stroke-linecap="round"/>
<path d="M9.79055 40.2445C6.74851 40.2445 3.41762 41.3045 2 44.1398" stroke="white" stroke-width="3" stroke-linecap="round"/>
<path d="M14.7481 48.035C14.7481 51.2396 13.6858 54.4092 13.6858 57.5962" stroke="white" stroke-width="3" stroke-linecap="round"/>
<path d="M25.7258 50.1597C26.7111 50.2829 28.1545 53.5653 28.48 54.4091C29.1636 56.1815 29.7358 57.9404 30.3293 59.7209" stroke="white" stroke-width="3" stroke-linecap="round"/>
<path d="M35.9951 43.0774C37.469 43.0774 41.3069 48.788 41.3069 49.8056" stroke="white" stroke-width="3" stroke-linecap="round"/>
</svg>
